<svg id="svg" xmlns="http://www.w3.org/2000/svg" xmlns:xlink="http://www.w3.org/1999/xlink" width="400" height="400" viewBox="0, 0, 400,400"><g id="svgg"><path id="path0" d="M296.302 16.943 C 294.818 17.481,291.566 19.273,289.075 20.925 C 282.837 25.061,282.413 25.209,275.600 25.596 C 263.494 26.285,259.156 29.232,256.025 38.897 L 255.540 40.395 164.870 40.497 L 74.200 40.600 71.706 41.752 C 68.691 43.145,65.973 45.910,64.472 49.113 L 63.400 51.400 63.297 135.264 L 63.194 219.128 53.297 219.264 L 43.400 219.400 41.071 220.580 C 38.427 221.920,36.667 223.734,35.442 226.380 C 34.190 229.085,34.112 289.735,35.357 292.961 C 37.706 299.053,40.391 300.168,53.090 300.325 L 63.180 300.450 63.290 336.725 L 63.400 373.000 64.573 375.400 C 66.125 378.577,69.318 381.668,72.281 382.864 L 74.600 383.800 199.200 383.800 C 320.672 383.800,323.851 383.781,325.849 383.039 C 328.779 381.952,331.374 379.928,333.022 377.446 C 335.817 373.236,335.599 383.623,335.607 254.236 L 335.614 137.000 337.839 136.036 C 341.933 134.263,344.438 130.959,346.831 124.172 C 349.199 117.458,349.986 116.411,356.147 111.781 C 364.371 105.602,366.052 99.833,362.842 88.800 C 361.984 85.851,361.504 83.338,361.504 81.800 C 361.504 80.262,361.984 77.749,362.842 74.800 C 366.145 63.447,364.465 58.081,355.469 51.247 C 349.872 46.994,349.480 46.482,347.188 40.407 C 342.575 28.184,340.159 26.379,327.400 25.621 C 320.472 25.209,319.909 25.024,314.361 21.354 C 306.408 16.094,301.767 14.960,296.302 16.943 M306.611 27.849 C 316.838 34.409,317.600 34.686,326.905 35.221 C 334.938 35.682,335.691 36.238,338.007 43.400 C 340.066 49.768,342.900 53.881,347.600 57.323 C 355.293 62.956,355.572 63.677,353.365 72.235 C 351.376 79.948,351.376 83.652,353.365 91.365 C 355.599 100.027,355.546 100.157,347.353 106.346 C 342.721 109.846,340.613 112.896,338.196 119.600 C 335.297 127.639,335.047 127.818,325.974 128.371 C 318.011 128.856,316.247 129.424,309.851 133.567 C 301.511 138.969,301.186 138.986,294.192 134.376 C 286.642 129.400,285.248 128.917,276.937 128.391 C 268.699 127.871,267.567 127.357,266.067 123.458 C 265.631 122.326,264.627 119.690,263.835 117.600 C 261.999 112.752,259.364 109.144,255.770 106.557 C 247.299 100.458,247.020 99.661,249.837 89.600 C 251.437 83.886,251.327 79.492,249.403 72.200 C 247.278 64.145,247.523 63.273,253.122 58.954 C 260.235 53.466,262.366 50.737,264.424 44.477 C 267.194 36.052,267.628 35.707,276.092 35.195 C 285.092 34.651,286.635 34.149,293.557 29.503 C 300.583 24.788,301.632 24.655,306.611 27.849 M298.921 45.205 C 296.657 46.117,296.611 46.526,296.476 67.200 C 296.334 88.936,296.392 89.879,297.988 91.587 C 300.646 94.433,305.587 92.498,306.187 88.376 C 306.706 84.806,306.245 48.287,305.666 47.166 C 304.618 45.138,301.407 44.204,298.921 45.205 M248.800 50.134 C 248.800 50.207,247.808 50.951,246.594 51.786 C 243.399 53.987,240.157 57.649,239.321 60.004 L 238.615 61.992 163.390 62.096 C 91.299 62.196,88.118 62.230,87.049 62.931 C 84.659 64.497,84.800 59.486,84.800 142.787 L 84.800 219.200 78.800 219.200 L 72.800 219.200 72.800 136.459 L 72.800 53.718 73.709 52.369 C 74.307 51.481,75.161 50.857,76.209 50.541 C 77.656 50.105,248.800 49.701,248.800 50.134 M193.883 73.500 C 193.763 74.325,192.802 84.101,191.747 95.223 L 189.829 115.447 186.275 117.564 C 184.321 118.729,182.580 119.528,182.406 119.341 C 182.233 119.153,180.259 111.357,178.019 102.016 C 175.779 92.674,173.649 84.530,173.287 83.916 C 172.348 82.327,169.702 81.372,167.892 81.970 C 165.163 82.870,165.130 82.960,160.604 101.811 C 158.281 111.485,156.340 119.507,156.290 119.638 C 156.241 119.769,149.185 115.584,140.610 110.338 C 123.521 99.882,122.845 99.591,120.308 101.586 C 117.030 104.165,117.378 105.097,128.217 122.811 C 136.334 136.075,137.532 138.236,136.915 138.492 C 136.522 138.655,128.640 140.597,119.400 142.808 C 109.374 145.207,102.197 147.119,101.600 147.552 C 98.342 149.915,99.238 154.876,103.129 156.017 C 103.938 156.254,111.943 158.215,120.917 160.375 C 129.892 162.534,137.319 164.386,137.423 164.490 C 137.527 164.593,133.536 171.320,128.554 179.439 C 116.894 198.442,117.125 197.863,120.046 200.784 C 122.732 203.471,123.296 203.244,140.800 192.437 C 154.685 183.864,156.222 183.011,156.425 183.764 C 156.592 184.385,156.335 184.822,155.425 185.461 C 154.751 185.935,143.580 193.718,130.600 202.757 L 107.000 219.192 100.700 219.196 L 94.400 219.200 94.400 145.600 L 94.400 72.000 144.251 72.000 L 194.102 72.000 193.883 73.500 M239.995 74.875 C 241.882 81.086,241.856 81.845,239.446 90.951 C 236.785 101.005,238.604 105.784,247.718 112.688 C 252.481 116.297,253.482 117.625,255.408 122.897 C 259.810 134.945,264.013 137.963,276.427 137.992 C 281.073 138.003,283.076 138.698,288.000 142.010 C 294.427 146.334,298.757 147.973,302.577 147.527 L 304.008 147.360 303.904 166.135 L 303.800 184.910 269.400 208.826 C 250.480 221.980,233.924 233.520,232.608 234.471 C 231.292 235.422,224.722 240.024,218.008 244.698 C 208.988 250.977,205.624 253.536,205.127 254.498 C 204.601 255.513,203.479 265.965,200.026 302.000 C 197.592 327.410,195.489 349.145,195.354 350.300 L 195.108 352.400 144.754 352.400 L 94.400 352.400 94.400 334.976 C 94.400 321.145,94.503 317.614,94.900 317.852 C 95.175 318.016,99.270 320.772,104.000 323.975 C 113.680 330.531,115.334 331.116,117.756 328.841 C 119.832 326.891,119.815 326.436,117.202 313.408 C 115.881 306.824,114.800 301.213,114.800 300.937 C 114.800 300.552,117.264 300.409,125.500 300.318 L 136.200 300.200 138.530 299.019 C 141.031 297.752,142.729 295.924,143.992 293.141 C 145.092 290.718,145.254 230.276,144.170 227.093 C 142.337 221.715,138.475 219.549,130.145 219.231 L 124.090 219.000 140.514 207.600 C 149.547 201.330,158.752 194.972,160.969 193.471 C 163.186 191.970,165.270 190.527,165.600 190.264 C 165.930 190.001,172.297 185.559,179.749 180.393 C 189.710 173.488,193.447 170.682,193.858 169.800 C 194.292 168.868,203.600 75.954,203.600 72.553 C 203.600 72.091,206.516 72.000,221.361 72.000 L 239.122 72.000 239.995 74.875 M299.151 100.882 C 295.865 102.250,295.132 114.718,298.171 117.572 C 300.503 119.764,304.822 118.651,305.877 115.586 C 306.496 113.790,306.496 105.403,305.877 103.637 C 305.008 101.155,301.724 99.810,299.151 100.882 M171.989 118.400 C 175.713 134.073,176.622 134.880,184.838 129.798 C 186.840 128.559,188.520 127.603,188.570 127.673 C 188.640 127.771,185.766 157.877,185.126 163.752 C 184.996 164.944,166.055 178.728,165.239 178.224 C 165.057 178.112,164.698 176.952,164.441 175.648 C 163.884 172.813,162.888 171.423,160.958 170.786 C 158.711 170.045,157.911 170.399,147.976 176.547 C 142.824 179.734,138.557 182.291,138.494 182.227 C 138.431 182.164,140.887 178.048,143.951 173.079 C 150.162 163.010,150.684 161.872,150.016 159.848 C 149.218 157.430,148.571 157.159,136.500 154.193 L 125.077 151.387 136.326 148.660 C 153.438 144.514,153.295 144.870,143.931 129.689 C 140.878 124.738,138.431 120.636,138.494 120.573 C 138.557 120.509,142.836 123.073,148.003 126.270 C 162.469 135.220,162.511 135.206,166.184 120.000 C 169.005 108.325,169.277 107.303,169.437 107.800 C 169.507 108.020,170.656 112.790,171.989 118.400 M326.000 253.813 C 326.000 379.732,326.156 371.275,323.795 373.133 L 322.692 374.000 199.340 374.000 L 75.988 374.000 74.494 372.631 L 73.000 371.262 72.893 337.005 L 72.787 302.749 78.784 306.842 L 84.782 310.936 84.891 335.046 L 85.000 359.156 86.378 360.578 L 87.757 362.000 199.420 362.000 L 311.083 362.000 312.146 361.015 C 312.730 360.474,313.386 359.562,313.604 358.989 C 313.862 358.312,314.000 320.332,314.000 250.221 L 314.000 142.494 316.637 140.776 C 319.403 138.974,321.982 138.072,324.500 138.027 L 326.000 138.000 326.000 253.813 M225.048 150.414 C 221.640 151.434,221.913 149.941,220.195 176.895 C 218.324 206.258,218.290 205.710,222.049 206.579 C 234.769 209.518,239.102 210.023,241.108 208.799 C 242.818 207.757,242.191 209.529,250.235 183.000 C 258.366 156.185,258.394 155.991,254.471 154.453 C 253.613 154.117,226.816 149.909,226.332 150.034 C 226.260 150.053,225.681 150.224,225.048 150.414 M239.711 161.762 C 242.962 162.272,245.717 162.784,245.832 162.899 C 246.001 163.068,235.351 198.750,235.028 199.099 C 234.977 199.153,233.459 198.901,231.653 198.539 L 228.369 197.880 228.576 196.240 C 228.689 195.338,229.248 187.310,229.817 178.400 C 231.058 158.966,230.856 160.302,232.512 160.601 C 233.220 160.729,236.460 161.251,239.711 161.762 M304.000 274.600 L 304.000 352.400 254.395 352.400 L 204.791 352.400 205.003 350.900 C 205.120 350.075,206.021 341.030,207.007 330.800 C 207.992 320.570,208.898 311.441,209.021 310.513 C 209.231 308.932,214.480 304.800,216.279 304.800 C 216.482 304.800,218.527 312.675,220.824 322.300 C 225.646 342.507,225.599 342.400,229.554 342.400 C 233.564 342.400,233.379 342.823,238.329 322.308 L 242.647 304.416 251.223 309.677 C 272.052 322.452,274.047 323.600,275.416 323.600 C 277.426 323.600,278.711 322.962,279.622 321.510 C 281.233 318.942,280.938 318.280,270.825 301.772 C 265.716 293.432,261.506 286.447,261.468 286.249 C 261.431 286.051,269.404 283.952,279.187 281.584 C 299.253 276.727,299.200 276.750,299.200 273.174 C 299.200 268.918,299.850 269.207,278.921 264.170 C 269.298 261.854,261.376 259.909,261.316 259.849 C 261.256 259.789,265.265 253.110,270.226 245.006 C 281.871 225.984,281.354 227.135,279.488 224.365 C 276.878 220.492,276.314 220.688,258.213 231.759 C 241.369 242.060,242.290 241.557,242.472 240.355 C 242.570 239.708,302.908 196.938,303.900 196.813 C 303.955 196.806,304.000 231.810,304.000 274.600 M172.167 219.188 C 171.362 219.513,169.211 221.784,169.189 222.331 C 169.184 222.479,168.659 230.519,168.024 240.197 C 166.559 262.542,166.013 260.893,175.521 262.842 C 186.658 265.125,185.327 266.666,192.373 243.337 C 197.700 225.703,197.746 225.450,195.996 223.456 C 194.549 221.808,195.173 221.975,183.847 220.219 C 174.152 218.716,173.480 218.657,172.167 219.188 M134.469 229.462 C 135.547 230.438,135.614 288.880,134.538 290.069 C 133.922 290.749,132.953 290.800,120.597 290.800 C 101.977 290.800,102.600 290.233,105.448 304.601 C 106.438 309.597,107.166 313.768,107.064 313.869 C 106.963 313.970,99.347 308.980,90.140 302.779 C 80.933 296.578,72.983 291.346,72.474 291.152 C 71.965 290.958,65.710 290.800,58.574 290.800 C 46.133 290.800,45.567 290.767,44.800 290.000 C 43.530 288.730,43.545 231.039,44.816 229.675 L 45.631 228.800 89.684 228.800 C 130.114 228.800,133.797 228.854,134.469 229.462 M185.124 230.275 C 185.632 230.398,185.974 230.701,185.884 230.949 C 185.793 231.197,184.222 236.407,182.392 242.526 L 179.064 253.653 178.033 253.394 C 177.466 253.251,176.955 253.089,176.899 253.032 C 176.842 252.975,177.157 248.025,177.598 242.031 C 178.039 236.037,178.400 230.764,178.400 230.314 C 178.400 229.495,181.815 229.475,185.124 230.275 M260.670 241.900 C 260.572 242.065,258.142 246.014,255.269 250.676 C 245.598 266.369,245.511 266.111,261.800 270.007 C 267.520 271.375,272.429 272.618,272.710 272.769 C 272.990 272.919,268.190 274.266,262.042 275.761 C 249.398 278.836,249.224 278.924,248.894 282.363 C 248.711 284.267,248.827 284.552,251.614 289.076 C 259.584 302.011,260.815 304.057,260.520 303.874 C 234.892 288.048,236.660 287.936,232.368 305.656 C 229.589 317.128,229.522 317.288,228.826 314.113 C 223.684 290.649,222.655 289.222,214.472 294.207 C 212.422 295.456,210.669 296.402,210.576 296.309 C 210.425 296.158,213.950 259.489,214.128 259.358 C 216.786 257.399,233.406 246.000,233.604 246.000 C 233.762 246.000,234.124 247.101,234.410 248.446 C 235.986 255.875,238.223 255.700,252.000 247.066 C 261.271 241.256,260.931 241.459,260.670 241.900 M66.908 253.793 C 61.693 256.060,63.393 266.400,68.980 266.400 C 74.460 266.400,75.798 255.264,70.508 253.680 C 68.554 253.094,68.512 253.096,66.908 253.793 M88.037 253.723 C 84.647 254.911,83.531 262.116,86.308 264.892 C 89.978 268.563,94.400 265.984,94.400 260.174 C 94.400 254.465,92.222 252.256,88.037 253.723 M108.882 253.689 C 104.986 254.980,104.383 263.066,108.000 265.521 C 111.458 267.867,115.083 265.657,115.454 260.975 C 115.903 255.299,113.170 252.269,108.882 253.689 M160.420 287.723 C 157.711 288.659,157.670 288.870,156.418 308.128 C 154.913 331.293,153.992 329.031,165.902 331.437 C 174.927 333.260,173.757 334.793,180.551 312.248 C 187.561 288.989,188.349 291.090,171.685 288.595 C 161.124 287.013,162.224 287.099,160.420 287.723 M171.553 298.379 C 172.957 298.595,174.203 298.869,174.321 298.988 C 174.672 299.338,167.480 322.001,167.021 321.994 C 165.489 321.972,165.444 321.584,165.947 312.734 C 166.847 296.874,166.759 297.530,167.960 297.774 C 168.532 297.890,170.149 298.162,171.553 298.379 " stroke="none" fill="#000000" fill-rule="evenodd"></path></g></svg>